<?xml version="1.0" encoding="UTF-8" standalone="no"?>
<!DOCTYPE svg PUBLIC "-//W3C//DTD SVG 1.1//EN"
 "http://www.w3.org/Graphics/SVG/1.1/DTD/svg11.dtd">
<!-- Generated by graphviz version 2.43.0 (0)
 -->
<!-- Title: G Pages: 1 -->
<svg width="107pt" height="67pt"
 viewBox="0.00 0.00 106.67 67.30" xmlns="http://www.w3.org/2000/svg" xmlns:xlink="http://www.w3.org/1999/xlink">
<g id="graph0" class="graph" transform="scale(1 1) rotate(0) translate(21.6 45.7)">
<title>G</title>
<polygon fill="#111111" stroke="transparent" points="-21.6,21.6 -21.6,-45.7 85.07,-45.7 85.07,21.6 -21.6,21.6"/>
<!-- index.js -->
<g id="node1" class="node">
<title>index.js</title>
<path fill="none" stroke="#cfffac" d="M55.64,-24.15C55.64,-24.15 7.83,-24.15 7.83,-24.15 3.8,-24.15 -0.24,-20.12 -0.24,-16.08 -0.24,-16.08 -0.24,-8.02 -0.24,-8.02 -0.24,-3.98 3.8,0.05 7.83,0.05 7.83,0.05 55.64,0.05 55.64,0.05 59.67,0.05 63.7,-3.98 63.7,-8.02 63.7,-8.02 63.7,-16.08 63.7,-16.08 63.7,-20.12 59.67,-24.15 55.64,-24.15"/>
<text text-anchor="middle" x="31.73" y="-8.9" font-family="Arial" font-size="14.00" fill="#cfffac">index.js</text>
</g>
</g>
</svg>
